<svg width="48.000000" height="48.000000" viewBox="0 0 48 48" fill="none" xmlns="http://www.w3.org/2000/svg" xmlns:xlink="http://www.w3.org/1999/xlink">
	<desc>
			Created with Pixso.
	</desc>
	<defs/>
	<path id="Vector" d="M17.8286 0C22.5571 0 27.0918 1.87836 30.4351 5.22186C33.7788 8.56537 35.6572 13.1001 35.6572 17.8286C35.6572 22.2446 34.0391 26.304 31.3784 29.4308L32.1187 30.1714L34.2856 30.1714L48 43.8857L43.8857 48L30.1714 34.2857L30.1714 32.1189L29.4307 31.3783C26.1958 34.1397 22.082 35.6569 17.8286 35.6571C13.1001 35.6571 8.56543 33.7788 5.22168 30.4353C1.87842 27.0918 0 22.557 0 17.8286C0 13.1001 1.87842 8.56537 5.22168 5.22186C8.56543 1.87836 13.1001 0 17.8286 0ZM17.8286 5.48572C10.9712 5.48572 5.48584 10.9714 5.48584 17.8286C5.48584 24.6857 10.9712 30.1714 17.8286 30.1714C24.6855 30.1714 30.1714 24.6857 30.1714 17.8286C30.1714 10.9714 24.6855 5.48572 17.8286 5.48572Z" fill="#FFFFFF" fill-opacity="1.000000" fill-rule="nonzero"/>
</svg>
